# xmcd
#
# Track frame offsets: 
#        150
#        15728
#        30161
#        49338
#        65893
#        81732
#        100568
#        120600
#        136910
#        154043
#        168483
#        186998
#
# Disc length: 2762 seconds
#
# Revision: 0
# Processed by: cddbd v1.5.2PL0 Copyright (c) Steve Scherf et al.
# Submitted via: ExactAudioCopyFreeDBPlugin 1.0
#
DISCID=9f0ac80c
DTITLE=Original Legends Of The Blues - Still Carrying The Flame
DYEAR=2015
DGENRE=Blues
TTITLE0=Here Today, Gone Tomorrow
TTITLE1=Stay Gone
TTITLE2=Irene, Irene
TTITLE3=Royal and St. Pete
TTITLE4=Why I Sing The Blues
TTITLE5=My Friend
TTITLE6=Edumacation
TTITLE7=Taking Care Of Business
TTITLE8=Let Me Move You
TTITLE9=Thrill Is Gone
TTITLE10=Get Out Of Town
TTITLE11=Honey Bee
EXTD=
EXTT0=
EXTT1=
EXTT2=
EXTT3=
EXTT4=
EXTT5=
EXTT6=
EXTT7=
EXTT8=
EXTT9=
EXTT10=
EXTT11=
PLAYORDER=
